<svg width="60" height="60" viewBox="0 0 60 60" fill="none" xmlns="http://www.w3.org/2000/svg">
  <!-- Background -->
  <rect width="60" height="60" rx="10" fill="#F0FBFF"/>

  <!-- Top-left scanner (new element) -->
  <rect x="15" y="14" width="10" height="6" rx="1.5" stroke="#00A9DF" stroke-width="1.5"/>
  <line x1="16" y1="16" x2="24" y2="16" stroke="#00A9DF" stroke-width="1"/>
  <line x1="17" y1="18" x2="23" y2="18" stroke="#00A9DF" stroke-width="1"/>

  <!-- Scan rays -->
  <line x1="25" y1="17" x2="28" y2="19" stroke="#00A9DF" stroke-width="1.2"/>
  <line x1="25" y1="15" x2="28" y2="13" stroke="#00A9DF" stroke-width="1.2"/>

  <!-- Box -->
  <path d="M20 22L30 17L40 22V36L30 41L20 36V22Z" stroke="#00A9DF" stroke-width="1.8" fill="none"/>
  <path d="M20 22L30 27L40 22" stroke="#00A9DF" stroke-width="1.8"/>

  <!-- Clipboard -->
  <rect x="24" y="27" width="9" height="11" rx="1.5" stroke="#00A9DF" stroke-width="1.5"/>

  <!-- Minimal checklist -->
  <line x1="26" y1="31" x2="31" y2="31" stroke="#00A9DF" stroke-width="1.3"/>

  <!-- Check mark -->
  <path d="M34 32L36 34L40 30" stroke="#00A9DF" stroke-width="1.8" stroke-linecap="round" stroke-linejoin="round"/>

  <!-- Barcode -->
  <line x1="22" y1="40" x2="22" y2="45" stroke="#00A9DF" stroke-width="1"/>
  <line x1="25" y1="40" x2="25" y2="45" stroke="#00A9DF" stroke-width="2"/>
  <line x1="28" y1="40" x2="28" y2="45" stroke="#00A9DF" stroke-width="1"/>
  <line x1="31" y1="40" x2="31" y2="45" stroke="#00A9DF" stroke-width="2"/>
</svg>