<svg width="24" height="24" viewBox="0 0 24 24" fill="none" xmlns="http://www.w3.org/2000/svg">
  <!-- Box (Order) -->
  <path d="M4 8L12 4L20 8L12 12L4 8Z" stroke="#84919A" stroke-width="1.6" stroke-linejoin="round"/>
  <path d="M4 8V16L12 20M20 8V16L12 20" stroke="#84919A" stroke-width="1.6" stroke-linejoin="round"/>

  <!-- Broken Link (Decommit) -->
  <path d="M9 13L7.5 14.5C6.7 15.3 6.7 16.7 7.5 17.5C8.3 18.3 9.7 18.3 10.5 17.5L12 16" 
        stroke="#84919A" stroke-width="1.5" stroke-linecap="round"/>
  <path d="M15 11L16.5 9.5C17.3 8.7 17.3 7.3 16.5 6.5C15.7 5.7 14.3 5.7 13.5 6.5L12 8" 
        stroke="#84919A" stroke-width="1.5" stroke-linecap="round"/>

  <!-- Separation Indicator -->
  <path d="M10 14L14 10" stroke="#84919A" stroke-width="1.5" stroke-linecap="round"/>
</svg>