<svg width="20" height="20" viewBox="0 0 20 20" fill="none" xmlns="http://www.w3.org/2000/svg">
<path fill-rule="evenodd" clip-rule="evenodd" d="M10 2C5.58172 2 2 5.58172 2 10C2 14.4183 5.58172 18 10 18C14.4183 18 18 14.4183 18 10C18 8.34315 17.4473 6.81398 16.5355 5.58579L15.1213 7C15.6839 7.84444 16 8.85888 16 10C16 13.3137 13.3137 16 10 16C6.68629 16 4 13.3137 4 10C4 6.68629 6.68629 4 10 4V2ZM10.75 6C10.75 5.58579 10.4142 5.25 10 5.25C9.58579 5.25 9.25 5.58579 9.25 6V10.5C9.25 10.7652 9.35536 11.0196 9.54289 11.2071L12.5 14.1642C12.7929 14.4571 13.2678 14.4571 13.5607 14.1642C13.8536 13.8713 13.8536 13.3964 13.5607 13.1036L10.75 10.2929V6ZM6 7H8V9H6V7Z" fill="#84919A"/>
</svg>