<svg width="20" height="20" viewBox="0 0 20 20" fill="none" xmlns="http://www.w3.org/2000/svg">
  <!-- History / Location Marker -->
  <path d="M9.8 12.2C9.9 12.3 10 12.35 10.1 12.35C10.2 12.35 10.3 12.3 10.4 12.2C10.6 12 13.2 9.5 13.2 6.8C13.2 4.9 11.7 3.4 10.1 3.4C8.5 3.4 7 4.9 7 6.8C7 9.5 9.6 12 9.8 12.2Z" fill="#84919A"/>
  
  <!-- Move Arrow -->
  <path d="M11.5 10.5H16M16 10.5L14.5 9M16 10.5L14.5 12" 
        stroke="#84919A" 
        stroke-width="1.4" 
        stroke-linecap="round" 
        stroke-linejoin="round"/>

  <!-- Base / Record -->
  <path d="M3 14C3 13.7 3.2 13.5 3.5 13.5H16.5C16.8 13.5 17 13.7 17 14V15.5C17 15.8 16.8 16 16.5 16H3.5C3.2 16 3 15.8 3 15.5V14Z" fill="#84919A"/>
</svg>