<svg
  width="24"
  height="24"
  viewBox="0 0 24 24"
  fill="none"
  xmlns="http://www.w3.org/2000/svg"
>
  <!-- Main Card -->
  <rect
    x="4"
    y="4"
    width="16"
    height="16"
    rx="2"
    stroke="#84919A"
    stroke-width="1.6"
  />

  <!-- Number Type Label -->
  <path
    d="M7.5 9H10.5"
    stroke="#84919A"
    stroke-width="1.5"
    stroke-linecap="round"
  />
  <path
    d="M13.5 9H16.5"
    stroke="#84919A"
    stroke-width="1.5"
    stroke-linecap="round"
  />

  <!-- Number Symbols -->
  <path
    d="M8 15V12.5L7.2 13"
    stroke="#84919A"
    stroke-width="1.4"
    stroke-linecap="round"
    stroke-linejoin="round"
  />
  <path
    d="M11.2 12.8C11.2 12.1 11.7 11.7 12.4 11.7C13.1 11.7 13.6 12.1 13.6 12.8C13.6 13.4 13.1 13.8 12.4 13.8C11.7 13.8 11.2 14.2 11.2 14.9C11.2 15.6 11.7 16 12.4 16C13.1 16 13.6 15.6 13.6 14.9"
    stroke="#84919A"
    stroke-width="1.4"
    stroke-linecap="round"
    stroke-linejoin="round"
  />
  <path
    d="M16.8 12L15.6 16H18"
    stroke="#84919A"
    stroke-width="1.4"
    stroke-linecap="round"
    stroke-linejoin="round"
  />
</svg>